# xmcd CD database file
#
# Track frame offsets:
#	150
#	11294
#	38709
#	60909
#	79854
#	96459
#	125154
#	148419
#	166338
#
# Disc length: 2489 seconds
#
# Revision: 0
# Processed by: cddbd v1.5.1PL2 Copyright (c) Steve Scherf et al.
# Submitted via: CDex 1.51
#
DISCID=7509b709
DTITLE=Candela mi son - Tomame
DYEAR=2005
DGENRE=Salsa
TTITLE0=Opening
TTITLE1=Nadie escarmienta por cabeza arena
TTITLE2=Llevame para el mar
TTITLE3=El cuarto de tula
TTITLE4=Bolerana
TTITLE5=Tomame que te conviene
TTITLE6=Cha Cuba
TTITLE7=Candela mi son
TTITLE8=Rico pilon
EXTD=YEAR: 2005
EXTT0=
EXTT1=
EXTT2=
EXTT3=
EXTT4=
EXTT5=
EXTT6=
EXTT7=
EXTT8=
PLAYORDER=
